# xmcd CD database file generated by Grip 3.2.0
# 
# Track frame offsets:
#       150
#       21694
#       42561
#       56097
#       70315
#       89591
#       107715
#       123651
#       134498
#       149926
#       165516
# 
# Disc length: 2459 seconds
# 
# Revision: 3
# Processed by: cddbd v1.5.1PL2 Copyright (c) Steve Scherf et al.
# Submitted via: Grip 3.2.0
# 
DISCID=b609990b
DTITLE=Bebel Gilberto - Tanto Tempo
DYEAR=1900
DGENRE=Blues
TTITLE0=Samba de Bencao
TTITLE1=August Day Song
TTITLE2=Tanto Tempo
TTITLE3=Sem Contencao
TTITLE4=Mais Feliz
TTITLE5=Alguem
TTITLE6=So Nice (Summer Samba)
TTITLE7=Lonely
TTITLE8=Bananeira
TTITLE9=Samba E Amor
TTITLE10=Close Your Eyes
EXTD=
EXTT0=
EXTT1=
EXTT2=
EXTT3=
EXTT4=
EXTT5=
EXTT6=
EXTT7=
EXTT8=
EXTT9=
EXTT10=
PLAYORDER=
